<svg viewBox="0 0 18 18" fill="none" xmlns="http://www.w3.org/2000/svg">
<path d="M8.39922 1.7998C7.73622 1.7998 7.19922 2.3368 7.19922 2.9998H2.39922C1.73622 2.9998 1.19922 3.5368 1.19922 4.1998V9.5998C1.19922 10.2628 1.73622 10.7998 2.39922 10.7998H15.5992C16.2622 10.7998 16.7992 10.2628 16.7992 9.5998V4.1998C16.7992 3.5368 16.2622 2.9998 15.5992 2.9998H10.7992C10.7992 2.3368 10.2622 1.7998 9.59922 1.7998H8.39922ZM8.99922 8.3998C9.33042 8.3998 9.59922 8.6686 9.59922 8.9998C9.59922 9.331 9.33042 9.5998 8.99922 9.5998C8.66802 9.5998 8.39922 9.331 8.39922 8.9998C8.39922 8.6686 8.66802 8.3998 8.99922 8.3998ZM1.19922 11.6658V13.7998C1.19922 14.4628 1.73622 14.9998 2.39922 14.9998H15.5992C16.2622 14.9998 16.7992 14.4628 16.7992 13.7998V11.6658C16.4446 11.8722 16.0384 11.9998 15.5992 11.9998H2.39922C1.96002 11.9998 1.55382 11.8722 1.19922 11.6658Z" fill="black"/>
</svg>
