<svg viewBox="0 0 18 18" fill="none" xmlns="http://www.w3.org/2000/svg">
<path d="M9 2.25C8.40326 2.25 7.83097 2.48705 7.40901 2.90901C6.98705 3.33097 6.75 3.90326 6.75 4.5C6.75 5.09674 6.98705 5.66903 7.40901 6.09099C7.83097 6.51295 8.40326 6.75 9 6.75C9.59674 6.75 10.169 6.51295 10.591 6.09099C11.0129 5.66903 11.25 5.09674 11.25 4.5C11.25 3.90326 11.0129 3.33097 10.591 2.90901C10.169 2.48705 9.59674 2.25 9 2.25ZM4.125 3C3.62772 3 3.15081 3.19754 2.79917 3.54917C2.44754 3.90081 2.25 4.37772 2.25 4.875C2.25 5.37228 2.44754 5.84919 2.79917 6.20083C3.15081 6.55246 3.62772 6.75 4.125 6.75C4.62228 6.75 5.09919 6.55246 5.45083 6.20083C5.80246 5.84919 6 5.37228 6 4.875C6 4.37772 5.80246 3.90081 5.45083 3.54917C5.09919 3.19754 4.62228 3 4.125 3ZM13.875 3C13.3777 3 12.9008 3.19754 12.5492 3.54917C12.1975 3.90081 12 4.37772 12 4.875C12 5.37228 12.1975 5.84919 12.5492 6.20083C12.9008 6.55246 13.3777 6.75 13.875 6.75C14.3723 6.75 14.8492 6.55246 15.2008 6.20083C15.5525 5.84919 15.75 5.37228 15.75 4.875C15.75 4.37772 15.5525 3.90081 15.2008 3.54917C14.8492 3.19754 14.3723 3 13.875 3ZM9 15.75C7.13925 15.75 5.625 14.2357 5.625 12.375V8.8125C5.625 8.08875 6.21375 7.5 6.9375 7.5H11.0625C11.7862 7.5 12.375 8.08875 12.375 8.8125V12.375C12.375 14.2357 10.8607 15.75 9 15.75ZM4.875 12.375V8.8125C4.875 8.3145 5.05275 7.857 5.34787 7.5H2.8125C2.08875 7.5 1.5 8.08875 1.5 8.8125V11.25C1.5 12.9037 2.84625 14.25 4.5 14.25C4.76625 14.25 5.025 14.2162 5.2725 14.1487C5.2725 14.1487 5.27662 14.1469 5.28 14.1458C5.02312 13.6084 4.875 13.0091 4.875 12.375ZM13.125 12.375V8.8125C13.125 8.3145 12.9472 7.857 12.6521 7.5H15.1875C15.9112 7.5 16.5 8.08875 16.5 8.8125V11.25C16.5 12.9037 15.1537 14.25 13.5 14.25C13.2338 14.25 12.975 14.2162 12.7275 14.1487C12.7275 14.1487 12.7234 14.1469 12.72 14.1458C12.9769 13.6084 13.125 13.0091 13.125 12.375Z" fill="black"/>
</svg>
