<svg viewBox="0 0 18 18" fill="none" xmlns="http://www.w3.org/2000/svg">
<path d="M2.25 3.375C1.95163 3.375 1.66548 3.49353 1.4545 3.7045C1.24353 3.91548 1.125 4.20163 1.125 4.5C1.125 4.79837 1.24353 5.08452 1.4545 5.2955C1.66548 5.50647 1.95163 5.625 2.25 5.625C2.54837 5.625 2.83452 5.50647 3.0455 5.2955C3.25647 5.08452 3.375 4.79837 3.375 4.5C3.375 4.20163 3.25647 3.91548 3.0455 3.7045C2.83452 3.49353 2.54837 3.375 2.25 3.375ZM6 3.75C5.90062 3.74859 5.80194 3.76696 5.70972 3.80402C5.61749 3.84108 5.53355 3.8961 5.46277 3.96588C5.392 4.03566 5.33579 4.11882 5.29743 4.21051C5.25907 4.3022 5.23932 4.40061 5.23932 4.5C5.23932 4.59939 5.25907 4.6978 5.29743 4.78949C5.33579 4.88118 5.392 4.96434 5.46277 5.03412C5.53355 5.1039 5.61749 5.15892 5.70972 5.19598C5.80194 5.23304 5.90062 5.25141 6 5.25H15.75C15.8494 5.25141 15.9481 5.23304 16.0403 5.19598C16.1325 5.15892 16.2164 5.1039 16.2872 5.03412C16.358 4.96434 16.4142 4.88118 16.4526 4.78949C16.4909 4.6978 16.5107 4.59939 16.5107 4.5C16.5107 4.40061 16.4909 4.3022 16.4526 4.21051C16.4142 4.11882 16.358 4.03566 16.2872 3.96588C16.2164 3.8961 16.1325 3.84108 16.0403 3.80402C15.9481 3.76696 15.8494 3.74859 15.75 3.75H6ZM2.25 7.875C1.95163 7.875 1.66548 7.99353 1.4545 8.2045C1.24353 8.41548 1.125 8.70163 1.125 9C1.125 9.29837 1.24353 9.58452 1.4545 9.7955C1.66548 10.0065 1.95163 10.125 2.25 10.125C2.54837 10.125 2.83452 10.0065 3.0455 9.7955C3.25647 9.58452 3.375 9.29837 3.375 9C3.375 8.70163 3.25647 8.41548 3.0455 8.2045C2.83452 7.99353 2.54837 7.875 2.25 7.875ZM6 8.25C5.90062 8.24859 5.80194 8.26696 5.70972 8.30402C5.61749 8.34108 5.53355 8.3961 5.46277 8.46588C5.392 8.53566 5.33579 8.61882 5.29743 8.71051C5.25907 8.8022 5.23932 8.90061 5.23932 9C5.23932 9.09939 5.25907 9.1978 5.29743 9.28949C5.33579 9.38118 5.392 9.46434 5.46277 9.53412C5.53355 9.6039 5.61749 9.65892 5.70972 9.69598C5.80194 9.73304 5.90062 9.75141 6 9.75H15.75C15.8494 9.75141 15.9481 9.73304 16.0403 9.69598C16.1325 9.65892 16.2164 9.6039 16.2872 9.53412C16.358 9.46434 16.4142 9.38118 16.4526 9.28949C16.4909 9.1978 16.5107 9.09939 16.5107 9C16.5107 8.90061 16.4909 8.8022 16.4526 8.71051C16.4142 8.61882 16.358 8.53566 16.2872 8.46588C16.2164 8.3961 16.1325 8.34108 16.0403 8.30402C15.9481 8.26696 15.8494 8.24859 15.75 8.25H6ZM2.25 12.375C1.95163 12.375 1.66548 12.4935 1.4545 12.7045C1.24353 12.9155 1.125 13.2016 1.125 13.5C1.125 13.7984 1.24353 14.0845 1.4545 14.2955C1.66548 14.5065 1.95163 14.625 2.25 14.625C2.54837 14.625 2.83452 14.5065 3.0455 14.2955C3.25647 14.0845 3.375 13.7984 3.375 13.5C3.375 13.2016 3.25647 12.9155 3.0455 12.7045C2.83452 12.4935 2.54837 12.375 2.25 12.375ZM6 12.75C5.90062 12.7486 5.80194 12.767 5.70972 12.804C5.61749 12.8411 5.53355 12.8961 5.46277 12.9659C5.392 13.0357 5.33579 13.1188 5.29743 13.2105C5.25907 13.3022 5.23932 13.4006 5.23932 13.5C5.23932 13.5994 5.25907 13.6978 5.29743 13.7895C5.33579 13.8812 5.392 13.9643 5.46277 14.0341C5.53355 14.1039 5.61749 14.1589 5.70972 14.196C5.80194 14.233 5.90062 14.2514 6 14.25H15.75C15.8494 14.2514 15.9481 14.233 16.0403 14.196C16.1325 14.1589 16.2164 14.1039 16.2872 14.0341C16.358 13.9643 16.4142 13.8812 16.4526 13.7895C16.4909 13.6978 16.5107 13.5994 16.5107 13.5C16.5107 13.4006 16.4909 13.3022 16.4526 13.2105C16.4142 13.1188 16.358 13.0357 16.2872 12.9659C16.2164 12.8961 16.1325 12.8411 16.0403 12.804C15.9481 12.767 15.8494 12.7486 15.75 12.75H6Z" fill="black"/>
</svg>
