<svg width="14" height="16" viewBox="0 0 14 16" fill="none" xmlns="http://www.w3.org/2000/svg">
<path d="M7.00003 1.06665C5.20134 1.06665 3.73337 2.74434 3.73337 4.79998V5.86665H2.80003C2.28437 5.86665 1.8667 6.34398 1.8667 6.93332V13.3333C1.8667 13.9227 2.28437 14.4 2.80003 14.4H11.2C11.7157 14.4 12.1334 13.9227 12.1334 13.3333V6.93332C12.1334 6.34398 11.7157 5.86665 11.2 5.86665H4.6667V4.79998C4.6667 3.3207 5.70566 2.13332 7.00003 2.13332C8.01939 2.13332 8.87736 2.87714 9.19756 3.91144C9.21694 3.97902 9.24795 4.04149 9.28877 4.09517C9.32958 4.14885 9.37938 4.19266 9.43523 4.22402C9.49108 4.25538 9.55185 4.27367 9.61397 4.27779C9.67609 4.28192 9.73831 4.27181 9.79696 4.24805C9.85561 4.2243 9.90951 4.18738 9.9555 4.13946C10.0015 4.09155 10.0386 4.03361 10.0647 3.96906C10.0908 3.9045 10.1054 3.83463 10.1075 3.76355C10.1096 3.69248 10.0993 3.62164 10.0771 3.55519C9.62824 2.10523 8.41761 1.06665 7.00003 1.06665Z" fill="black"/>
</svg>
