<svg viewBox="0 0 40 22" fill="none" xmlns="http://www.w3.org/2000/svg">
<g clip-path="url(#clip0_526_2306)">
<path d="M7.58857 17.3098C6.68952 17.3098 5.90476 17.1226 5.23429 16.7481C4.56381 16.3586 4.03809 15.8344 3.65714 15.1753V21.8708H0V5.28936H3.17714V7.19915C3.61905 6.52511 4.17524 6.00085 4.84571 5.62638C5.51619 5.25191 6.30095 5.06468 7.2 5.06468C8.00762 5.06468 8.74667 5.22196 9.41714 5.53651C10.1029 5.85106 10.6971 6.28545 11.2 6.83966C11.7029 7.39387 12.0914 8.03796 12.3657 8.77191C12.64 9.50587 12.7771 10.2997 12.7771 11.1535C12.7771 12.3219 12.5562 13.3704 12.1143 14.2991C11.6724 15.2277 11.0552 15.9617 10.2629 16.5009C9.48571 17.0402 8.59429 17.3098 7.58857 17.3098ZM6.35429 14.2766C6.75048 14.2766 7.10857 14.1942 7.42857 14.0294C7.76381 13.8497 8.05333 13.6175 8.29714 13.3329C8.54095 13.0483 8.72381 12.7188 8.84571 12.3443C8.98286 11.9549 9.05143 11.5505 9.05143 11.1311C9.05143 10.6967 8.97524 10.2997 8.82286 9.94026C8.68571 9.58077 8.48762 9.26621 8.22857 8.99659C7.96952 8.712 7.66476 8.49481 7.31429 8.34502C6.96381 8.19523 6.58286 8.12034 6.17143 8.12034C5.92762 8.12034 5.67619 8.15779 5.41714 8.23268C5.17333 8.30757 4.93714 8.41991 4.70857 8.5697C4.49524 8.70451 4.29714 8.86928 4.11429 9.064C3.93143 9.25872 3.77905 9.48341 3.65714 9.73804V12.1646C3.82476 12.569 4.04571 12.9285 4.32 13.2431C4.59429 13.5576 4.90667 13.8123 5.25714 14.007C5.60762 14.1867 5.97333 14.2766 6.35429 14.2766ZM20.3348 17.3098C19.3139 17.3098 18.3996 17.145 17.592 16.8155C16.7996 16.486 16.1291 16.0366 15.5805 15.4674C15.032 14.8982 14.6129 14.2466 14.3234 13.5127C14.0491 12.7787 13.912 12.0073 13.912 11.1985C13.912 10.3746 14.0491 9.59574 14.3234 8.86179C14.6129 8.12783 15.032 7.47625 15.5805 6.90706C16.1291 6.33787 16.7996 5.88851 17.592 5.55898C18.3996 5.22945 19.3139 5.06468 20.3348 5.06468C21.3558 5.06468 22.2625 5.22945 23.0548 5.55898C23.8471 5.88851 24.5176 6.33787 25.0662 6.90706C25.6148 7.47625 26.0338 8.12783 26.3233 8.86179C26.6129 9.59574 26.7576 10.3746 26.7576 11.1985C26.7576 12.0073 26.6129 12.7787 26.3233 13.5127C26.0338 14.2466 25.6148 14.8982 25.0662 15.4674C24.5176 16.0366 23.8471 16.486 23.0548 16.8155C22.2625 17.145 21.3558 17.3098 20.3348 17.3098ZM17.6605 11.1985C17.6605 11.8126 17.7748 12.3518 18.0034 12.8162C18.2472 13.2805 18.5672 13.64 18.9634 13.8946C19.3596 14.1493 19.8167 14.2766 20.3348 14.2766C20.8377 14.2766 21.2872 14.1493 21.6834 13.8946C22.0948 13.625 22.4148 13.258 22.6433 12.7937C22.8719 12.3294 22.9862 11.7976 22.9862 11.1985C22.9862 10.5843 22.8719 10.0451 22.6433 9.58077C22.4148 9.11642 22.0948 8.75694 21.6834 8.5023C21.2872 8.24766 20.8377 8.12034 20.3348 8.12034C19.8167 8.12034 19.3596 8.24766 18.9634 8.5023C18.5672 8.75694 18.2472 9.11642 18.0034 9.58077C17.7748 10.0451 17.6605 10.5843 17.6605 11.1985ZM28.5257 0.683404H32.1829V12.8836C32.1829 13.3779 32.2743 13.7299 32.4571 13.9396C32.64 14.1493 32.899 14.2541 33.2343 14.2541C33.4629 14.2541 33.6914 14.2242 33.92 14.1643C34.1638 14.0894 34.3771 14.007 34.56 13.9171L35.04 16.6133C34.5829 16.823 34.0571 16.9877 33.4629 17.1076C32.8686 17.2274 32.3124 17.2873 31.7943 17.2873C30.7581 17.2873 29.9505 17.0177 29.3714 16.4785C28.8076 15.9243 28.5257 15.1454 28.5257 14.1418V0.683404ZM36.2276 17.0851V5.28936H39.8848V17.0851H36.2276Z" fill="#023535"/>
<path d="M39.9333 1.87234C39.9333 0.838275 39.0805 0 38.0286 0C36.9767 0 36.1238 0.838275 36.1238 1.87234C36.1238 2.90641 36.9767 3.74468 38.0286 3.74468C39.0805 3.74468 39.9333 2.90641 39.9333 1.87234Z" fill="#023535"/>
</g>
<defs>
<clipPath id="clip0_526_2306">
<rect width="40" height="22" fill="white"/>
</clipPath>
</defs>
</svg>
