<svg width="28" height="28" viewBox="0 0 28 28" fill="none" xmlns="http://www.w3.org/2000/svg">
<path d="M14 2.33301C8.84567 2.33301 4.66667 6.51201 4.66667 11.6663V12.833V13.8857C3.99734 14.524 3.5 15.345 3.5 16.333C3.5 17.782 4.50048 18.8564 5.76725 19.3818C7.28513 23.01 10.3253 25.6663 14 25.6663C17.6747 25.6663 20.7149 23.01 22.2327 19.3818C23.4995 18.8564 24.5 17.782 24.5 16.333C24.5 15.345 24.0027 14.524 23.3333 13.8857V12.833V11.6663C23.3333 6.51201 19.1543 2.33301 14 2.33301ZM8.16667 11.6663H19.8333C20.4773 11.6663 21 12.189 21 12.833V13.9997V14.3164C21 14.5217 21.0541 14.7233 21.157 14.9009C21.2598 15.0785 21.4076 15.2259 21.5856 15.3281C21.9399 15.5315 22.1667 15.8839 22.1667 16.333C22.1667 16.934 21.7364 17.3978 21.1618 17.4769C20.9545 17.5051 20.7587 17.5885 20.5947 17.7184C20.4308 17.8483 20.3047 18.0199 20.2298 18.2152C19.0272 21.3491 16.6349 23.333 14 23.333C11.3651 23.333 8.97278 21.3491 7.77018 18.2152C7.69528 18.0199 7.56925 17.8483 7.40529 17.7184C7.24133 17.5885 7.04547 17.5051 6.83822 17.4769C6.26364 17.3978 5.83333 16.934 5.83333 16.333C5.83333 15.8839 6.06014 15.5315 6.41439 15.3281C6.59236 15.2259 6.74021 15.0785 6.84303 14.9009C6.94585 14.7233 7 14.5217 7 14.3164V13.9997V12.833C7 12.189 7.52267 11.6663 8.16667 11.6663Z" fill="#222222"/>
</svg>
