<svg viewBox="0 0 18 18" fill="none" xmlns="http://www.w3.org/2000/svg">
<path d="M7.86864 1.5C7.50939 1.5 7.20229 1.75395 7.13329 2.10645L6.8828 3.39258C6.26723 3.62535 5.69804 3.95055 5.19823 4.36084L3.96483 3.93604C3.62508 3.81904 3.25128 3.95952 3.07128 4.27002L1.94042 6.22998C1.76117 6.54123 1.82641 6.93638 2.09716 7.17188L3.08593 8.03174C3.0345 8.34775 3.00096 8.66946 3.00096 9C3.00096 9.33054 3.0345 9.65225 3.08593 9.96826L2.09716 10.8281C1.82641 11.0636 1.76117 11.4588 1.94042 11.77L3.07128 13.73C3.25053 14.0412 3.62508 14.1817 3.96483 14.0654L5.19823 13.6406C5.69788 14.0507 6.26751 14.3748 6.8828 14.6074L7.13329 15.8936C7.20229 16.2461 7.50939 16.5 7.86864 16.5H10.1333C10.4925 16.5 10.7996 16.2461 10.8686 15.8936L11.1191 14.6074C11.7347 14.3747 12.3039 14.0494 12.8037 13.6392L14.0371 14.064C14.3768 14.181 14.7507 14.0412 14.9307 13.73L16.0615 11.7686C16.2408 11.4573 16.1755 11.0636 15.9048 10.8281L14.916 9.96826C14.9674 9.65225 15.001 9.33054 15.001 9C15.001 8.66946 14.9674 8.34775 14.916 8.03174L15.9048 7.17188C16.1755 6.93638 16.2408 6.54123 16.0615 6.22998L14.9307 4.27002C14.7514 3.95877 14.3768 3.81832 14.0371 3.93457L12.8037 4.35938C12.3041 3.94935 11.7344 3.62525 11.1191 3.39258L10.8686 2.10645C10.7996 1.75395 10.4925 1.5 10.1333 1.5H7.86864ZM9.00097 6C10.6577 6 12.001 7.34325 12.001 9C12.001 10.6567 10.6577 12 9.00097 12C7.34421 12 6.00097 10.6567 6.00097 9C6.00097 7.34325 7.34421 6 9.00097 6Z" fill="white"/>
</svg>
