<svg width="28" height="28" viewBox="0 0 28 28" fill="none" xmlns="http://www.w3.org/2000/svg">
<g clip-path="url(#clip0_630_3846)">
<path d="M13.9998 1.1416C13.1578 1.1416 12.3162 1.31246 11.5275 1.6543L0.537575 6.41667C-0.164759 6.73983 -0.183826 7.73008 0.505674 8.08008L4.64597 10.1787V10.5433C3.56914 12.7226 2.49727 17.0759 2.3491 22.1439C2.3316 22.796 2.86816 23.3333 3.52032 23.3333H7.20945C8.60309 25.0455 10.8052 26.8333 13.9998 26.8333C17.1944 26.8333 19.3965 25.0455 20.7902 23.3333H24.4793C25.1315 23.3333 25.6681 22.796 25.6483 22.1439C25.5001 17.0759 24.4282 12.7226 23.3514 10.5433V10.1787L25.6665 9.00749V12.8333C25.6665 13.4773 26.1891 14 26.8331 14C27.4771 14 27.9998 13.4773 27.9998 12.8333V7.33952L27.9884 7.33724C28.0199 6.97324 27.8482 6.59517 27.4621 6.41667L16.4721 1.6543C15.6835 1.31246 14.8419 1.1416 13.9998 1.1416ZM9.33315 12.8333H18.6665C19.9498 12.8333 20.9998 13.8833 20.9998 15.1667V16.3333C20.9998 17.9628 20.5641 19.2901 20.0086 20.3506C19.1599 21.8227 17.1867 24.5 13.9998 24.5C10.8129 24.5 8.83977 21.8227 7.99103 20.3506C7.43557 19.2901 6.99981 17.9628 6.99981 16.3333V15.1667C6.99981 13.8775 8.04398 12.8333 9.33315 12.8333Z" fill="#222222"/>
</g>
<defs>
<clipPath id="clip0_630_3846">
<rect width="28" height="28" fill="white"/>
</clipPath>
</defs>
</svg>
