<svg viewBox="0 0 16 16" fill="none" xmlns="http://www.w3.org/2000/svg">
<path d="M8.00065 1.33301C4.31865 1.33301 1.33398 4.31767 1.33398 7.99967C1.33398 11.6817 4.31865 14.6663 8.00065 14.6663C11.6827 14.6663 14.6673 11.6817 14.6673 7.99967C14.6673 4.31767 11.6827 1.33301 8.00065 1.33301ZM8.00065 11.333C7.63265 11.333 7.33398 11.0343 7.33398 10.6663V7.99967C7.33398 7.63167 7.63265 7.33301 8.00065 7.33301C8.36865 7.33301 8.66732 7.63167 8.66732 7.99967V10.6663C8.66732 11.0343 8.36865 11.333 8.00065 11.333ZM8.33398 5.99967H7.66732C7.48332 5.99967 7.33398 5.85034 7.33398 5.66634V4.99967C7.33398 4.81567 7.48332 4.66634 7.66732 4.66634H8.33398C8.51798 4.66634 8.66732 4.81567 8.66732 4.99967V5.66634C8.66732 5.85034 8.51798 5.99967 8.33398 5.99967Z" fill="#D4D4D4"/>
</svg>
